# xmcd
#
# Track frame offsets:
#	150
#	1307
#	19644
#	44410
#	68966
#	87563
#	106386
#	126225
#	146845
#	165360
#	187367
#	209263
#
# Disc length: 3040 seconds
#
# Revision: 1
# Processed by: cddbd v1.4PL0 Copyright (c) Steve Scherf et al.
# Submitted via: EasyCDDAExtractor 4.6.9.1
#
DISCID=ac0bde0c
DTITLE=Madame Piano - Zemlja cuda
DYEAR=2001
DGENRE=Ethnic
TTITLE0=Djangoline
TTITLE1=Djanga
TTITLE2=Da tebe nema
TTITLE3=Da l' znaes
TTITLE4=Eternal Love
TTITLE5=Maskenada
TTITLE6=Look Into My Eyes
TTITLE7=Tvoje carstvo nebesko
TTITLE8=Spirits of the Earth
TTITLE9=Devi
TTITLE10=Molitva pesmom stvorena
TTITLE11=Djanga II
EXTD=
EXTT0=
EXTT1=
EXTT2=
EXTT3=
EXTT4=
EXTT5=
EXTT6=
EXTT7=
EXTT8=
EXTT9=
EXTT10=
EXTT11=
PLAYORDER=
